<svg width="348" height="469" viewBox="0 0 348 469" fill="none" xmlns="http://www.w3.org/2000/svg">
<path d="M0 72.6391V392.139C10.8333 389.972 43 396.639 73.5 425.639C114 458.139 154.732 467.669 177.5 465.139C191.5 463.584 218 468.296 273.5 427.139C314.417 396.796 333.648 392.139 348 392.139V72.6391C345.5 75.1391 301.5 64.1391 275.5 40.1391C245.111 12.0874 197.167 0.80572 175.5 0.139053C157.5 -1.02761 112.5 4.63905 76.4999 36.6391C40.4999 68.6391 10.5 73.9724 0 72.6391Z" fill="#111111"/>
<g clip-path="url(#clip0_527_42)">
<path d="M173.928 298.765C208.609 298.765 236.724 270.65 236.724 235.969C236.724 201.288 208.609 173.173 173.928 173.173C139.246 173.173 111.132 201.288 111.132 235.969C111.132 270.65 139.246 298.765 173.928 298.765Z" stroke="#5A2ADD" stroke-width="5" stroke-miterlimit="10"/>
<path d="M173.928 316.292C218.289 316.292 254.251 280.33 254.251 235.969C254.251 191.608 218.289 155.646 173.928 155.646C129.566 155.646 93.6046 191.608 93.6046 235.969C93.6046 280.33 129.566 316.292 173.928 316.292Z" stroke="#5A2ADD" stroke-width="5" stroke-miterlimit="10"/>
<path d="M173.928 334.331C228.252 334.331 272.29 290.293 272.29 235.969C272.29 181.645 228.252 137.606 173.928 137.606C119.604 137.606 75.5652 181.645 75.5652 235.969C75.5652 290.293 119.604 334.331 173.928 334.331Z" stroke="#5A2ADD" stroke-width="5" stroke-miterlimit="10"/>
<path d="M173.928 352.371C238.215 352.371 290.329 300.256 290.329 235.969C290.329 171.682 238.215 119.567 173.928 119.567C109.641 119.567 57.5259 171.682 57.5259 235.969C57.5259 300.256 109.641 352.371 173.928 352.371Z" stroke="#5A2ADD" stroke-width="5" stroke-miterlimit="10"/>
<path d="M173.928 371.015C248.512 371.015 308.974 310.553 308.974 235.969C308.974 161.385 248.512 100.922 173.928 100.922C99.3435 100.922 38.8812 161.385 38.8812 235.969C38.8812 310.553 99.3435 371.015 173.928 371.015Z" stroke="#5A2ADD" stroke-width="5" stroke-miterlimit="10"/>
<path d="M173.928 280.85C198.715 280.85 218.809 260.756 218.809 235.969C218.809 211.182 198.715 191.088 173.928 191.088C149.141 191.088 129.047 211.182 129.047 235.969C129.047 260.756 149.141 280.85 173.928 280.85Z" stroke="#5A2ADD" stroke-width="5" stroke-miterlimit="10"/>
<path d="M173.928 263.742C189.266 263.742 201.701 251.308 201.701 235.969C201.701 220.63 189.266 208.196 173.928 208.196C158.589 208.196 146.155 220.63 146.155 235.969C146.155 251.308 158.589 263.742 173.928 263.742Z" fill="#5A2ADD" stroke="#5A2ADD" stroke-width="5" stroke-miterlimit="10"/>
<path d="M347.225 234.828C343.871 234.828 316.316 235.837 287.44 259.03C253.706 286.152 219.894 307.87 174.112 307.87C128.331 307.87 94.5189 286.136 60.7844 259.03C31.9246 235.837 4.35332 234.859 1.00006 234.828C4.35332 234.828 31.9246 233.819 60.7844 210.625C94.5189 183.504 128.331 161.786 174.112 161.786C219.894 161.786 253.706 183.52 287.44 210.625C316.316 233.819 343.871 234.797 347.225 234.828H347.566V88H1.00006V384.5H347.566V234.828H347.225Z" fill="#111111"/>
</g>
<path d="M347.908 236.612C347.908 236.612 318.582 237.17 287.782 212.469C254.032 185.414 220.235 163.748 174.454 163.748C128.672 163.748 94.8604 185.429 61.1259 212.469C30.3101 237.17 1.00006 236.612 1.00006 236.612" stroke="#5A2ADD" stroke-width="5" stroke-miterlimit="10"/>
<path d="M347.908 216.805C347.908 216.805 318.582 217.362 287.782 192.661C254.032 165.622 220.235 143.956 174.454 143.956C128.672 143.956 94.8604 165.637 61.1259 192.661C30.3101 217.362 1.00006 216.805 1.00006 216.805" stroke="#5A2ADD" stroke-width="5" stroke-miterlimit="10"/>
<path d="M347.908 197.354C347.908 197.354 318.582 197.896 287.782 173.21C254.032 146.155 220.235 124.49 174.454 124.49C128.672 124.49 94.8604 146.171 61.1259 173.21C30.3101 197.896 1.00006 197.354 1.00006 197.354" stroke="#5A2ADD" stroke-width="5" stroke-miterlimit="10"/>
<path d="M347.908 177.887C347.908 177.887 318.582 178.445 287.782 153.744C254.032 126.689 220.235 105.039 174.454 105.039C128.672 105.039 94.8604 126.72 61.1259 153.744C30.3101 178.445 1.00006 177.887 1.00006 177.887" stroke="#5A2ADD" stroke-width="5" stroke-miterlimit="10"/>
<path d="M347.908 158.436C347.908 158.436 318.582 158.994 287.782 134.215C254.032 107.176 220.235 85.51 174.454 85.51C128.672 85.51 94.8604 107.191 61.1259 134.215C30.3101 158.994 1.00006 158.436 1.00006 158.436" stroke="#5A2ADD" stroke-width="5" stroke-miterlimit="10"/>
<path d="M347.908 139.248C347.908 139.248 318.582 139.79 287.782 115.089C253.97 88.0499 220.235 66.3843 174.454 66.3843C128.672 66.3843 94.8604 88.0654 61.1259 115.089C30.3101 139.79 1.00006 139.248 1.00006 139.248" stroke="#5A2ADD" stroke-width="5" stroke-miterlimit="10"/>
<path d="M347.908 119.782C347.908 119.782 318.582 120.324 287.782 95.6381C254.032 68.5831 220.235 46.9175 174.454 46.9175C128.672 46.9175 94.8604 68.5986 61.1259 95.6381C30.3101 120.277 1.00006 119.782 1.00006 119.782" stroke="#5A2ADD" stroke-width="5" stroke-miterlimit="10"/>
<path d="M347.908 100.315C347.908 100.315 318.582 100.873 287.782 76.1717C254.032 49.1167 220.235 27.4666 174.454 27.4666C128.672 27.4666 94.8604 49.1477 61.1259 76.1717C30.3101 100.873 1.00006 100.315 1.00006 100.315" stroke="#5A2ADD" stroke-width="5" stroke-miterlimit="10"/>
<path d="M1.00006 80.8641C1.00006 80.8641 30.3101 81.4061 61.1259 56.7826C94.8604 29.6657 128.672 8 174.454 8C220.235 8 254.032 29.6811 287.782 56.7206C318.582 81.4061 347.908 80.8641 347.908 80.8641" stroke="#5A2ADD" stroke-width="5" stroke-miterlimit="10"/>
<path d="M347.908 237.294C347.908 237.294 318.582 236.736 287.782 261.437C254.032 288.492 220.235 310.158 174.454 310.158C128.672 310.158 94.8604 288.476 61.1259 261.437C30.3101 236.736 1.00006 237.294 1.00006 237.294" stroke="#5A2ADD" stroke-width="5" stroke-miterlimit="10"/>
<path d="M347.908 257.101C347.908 257.101 318.582 256.543 287.782 281.244C254.032 308.284 220.235 329.95 174.454 329.95C128.672 329.95 94.8604 308.268 61.1259 281.244C30.3101 256.559 1.00006 257.101 1.00006 257.101" stroke="#5A2ADD" stroke-width="5" stroke-miterlimit="10"/>
<path d="M347.908 276.552C347.908 276.552 318.582 276.01 287.782 300.695C253.97 327.797 220.235 349.478 174.454 349.478C128.672 349.478 94.8604 327.797 61.1259 300.757C30.3101 276.01 1.00006 276.552 1.00006 276.552" stroke="#5A2ADD" stroke-width="5" stroke-miterlimit="10"/>
<path d="M347.908 296.018C347.908 296.018 318.582 295.461 287.782 320.162C254.032 347.217 220.235 368.882 174.454 368.882C128.672 368.882 94.8604 347.201 61.1259 320.162C30.3101 295.461 1.00006 296.018 1.00006 296.018" stroke="#5A2ADD" stroke-width="5" stroke-miterlimit="10"/>
<path d="M1.00006 315.407C1.00006 315.407 30.3101 314.865 61.1259 339.566C94.8604 366.606 128.672 388.272 174.454 388.272C220.235 388.272 254.032 366.59 287.782 339.566C318.582 314.865 347.908 315.407 347.908 315.407" stroke="#5A2ADD" stroke-width="5" stroke-miterlimit="10"/>
<path d="M1.00006 334.657C1.00006 334.657 30.3101 334.115 61.1259 358.816C94.8604 385.856 128.672 407.522 174.454 407.522C220.235 407.522 254.032 385.84 287.782 358.816C318.582 334.115 347.908 334.657 347.908 334.657" stroke="#5A2ADD" stroke-width="5" stroke-miterlimit="10"/>
<path d="M347.908 354.124C347.908 354.124 318.582 353.582 287.782 378.267C254.032 405.322 220.235 426.988 174.454 426.988C128.672 426.988 94.8604 405.307 61.1259 378.267C30.3101 353.582 1.00006 354.124 1.00006 354.124" stroke="#5A2ADD" stroke-width="5" stroke-miterlimit="10"/>
<path d="M1.00006 373.59C1.00006 373.59 30.3101 373.033 61.1259 397.734C94.8604 424.789 128.672 446.439 174.454 446.439C220.235 446.439 254.032 424.758 287.782 397.734C318.582 373.033 347.908 373.59 347.908 373.59" stroke="#5A2ADD" stroke-width="5" stroke-miterlimit="10"/>
<path d="M347.908 393.041C347.908 393.041 318.582 392.499 287.782 417.185C254.032 444.24 220.235 465.906 174.454 465.906C128.672 465.906 94.8604 444.224 61.1259 417.185C30.3101 392.499 1.00006 393.041 1.00006 393.041" stroke="#5A2ADD" stroke-width="5" stroke-miterlimit="10"/>
<defs>
<clipPath id="clip0_527_42">
<rect width="277.84" height="277.84" fill="white" transform="translate(35.0001 97.0413)"/>
</clipPath>
</defs>
</svg>
