<svg width="276" height="276" viewBox="0 0 276 276" fill="none" xmlns="http://www.w3.org/2000/svg">
<path d="M137.928 200.724C172.609 200.724 200.724 172.609 200.724 137.928C200.724 103.246 172.609 75.1315 137.928 75.1315C103.246 75.1315 75.1316 103.246 75.1316 137.928C75.1316 172.609 103.246 200.724 137.928 200.724Z" stroke="#5A2ADD" stroke-width="5" stroke-miterlimit="10"/>
<path d="M137.928 218.251C182.289 218.251 218.251 182.289 218.251 137.928C218.251 93.5664 182.289 57.6045 137.928 57.6045C93.5664 57.6045 57.6045 93.5664 57.6045 137.928C57.6045 182.289 93.5664 218.251 137.928 218.251Z" stroke="#5A2ADD" stroke-width="5" stroke-miterlimit="10"/>
<path d="M137.928 236.29C192.252 236.29 236.29 192.252 236.29 137.928C236.29 83.6035 192.252 39.5652 137.928 39.5652C83.6035 39.5652 39.5652 83.6035 39.5652 137.928C39.5652 192.252 83.6035 236.29 137.928 236.29Z" stroke="#5A2ADD" stroke-width="5" stroke-miterlimit="10"/>
<path d="M137.928 254.329C202.214 254.329 254.329 202.214 254.329 137.928C254.329 73.6407 202.214 21.5259 137.928 21.5259C73.6407 21.5259 21.5259 73.6407 21.5259 137.928C21.5259 202.214 73.6407 254.329 137.928 254.329Z" stroke="#5A2ADD" stroke-width="5" stroke-miterlimit="10"/>
<path d="M137.928 272.974C212.512 272.974 272.974 212.512 272.974 137.928C272.974 63.3435 212.512 2.8811 137.928 2.8811C63.3435 2.8811 2.8811 63.3435 2.8811 137.928C2.8811 212.512 63.3435 272.974 137.928 272.974Z" stroke="#5A2ADD" stroke-width="5" stroke-miterlimit="10"/>
<path d="M137.928 182.809C162.715 182.809 182.809 162.715 182.809 137.928C182.809 113.141 162.715 93.0466 137.928 93.0466C113.141 93.0466 93.0466 113.141 93.0466 137.928C93.0466 162.715 113.141 182.809 137.928 182.809Z" stroke="#5A2ADD" stroke-width="5" stroke-miterlimit="10"/>
<path d="M137.928 165.701C153.266 165.701 165.701 153.266 165.701 137.928C165.701 122.589 153.266 110.155 137.928 110.155C122.589 110.155 110.155 122.589 110.155 137.928C110.155 153.266 122.589 165.701 137.928 165.701Z" fill="#5A2ADD" stroke="#5A2ADD" stroke-width="5" stroke-miterlimit="10"/>
</svg>
