<svg width="276" height="276" viewBox="0 0 276 276" fill="none" xmlns="http://www.w3.org/2000/svg">
<path d="M138.047 200.843C172.728 200.843 200.843 172.728 200.843 138.046C200.843 103.365 172.728 75.2504 138.047 75.2504C103.365 75.2504 75.2505 103.365 75.2505 138.046C75.2505 172.728 103.365 200.843 138.047 200.843Z" stroke="#5A2ADD" stroke-width="5" stroke-miterlimit="10"/>
<path d="M138.046 218.37C182.408 218.37 218.37 182.408 218.37 138.046C218.37 93.6853 182.408 57.7234 138.046 57.7234C93.6853 57.7234 57.7234 93.6853 57.7234 138.046C57.7234 182.408 93.6853 218.37 138.046 218.37Z" stroke="#5A2ADD" stroke-width="5" stroke-miterlimit="10"/>
<path d="M138.046 236.409C192.371 236.409 236.409 192.371 236.409 138.046C236.409 83.7224 192.371 39.6841 138.046 39.6841C83.7224 39.6841 39.6841 83.7224 39.6841 138.046C39.6841 192.371 83.7224 236.409 138.046 236.409Z" stroke="#5A2ADD" stroke-width="5" stroke-miterlimit="10"/>
<path d="M138.046 254.448C202.333 254.448 254.448 202.333 254.448 138.046C254.448 73.7596 202.333 21.6448 138.046 21.6448C73.7596 21.6448 21.6448 73.7596 21.6448 138.046C21.6448 202.333 73.7596 254.448 138.046 254.448Z" stroke="#5A2ADD" stroke-width="5" stroke-miterlimit="10"/>
<path d="M138.046 273.093C212.631 273.093 273.093 212.631 273.093 138.046C273.093 63.4624 212.631 3 138.046 3C63.4624 3 3 63.4624 3 138.046C3 212.631 63.4624 273.093 138.046 273.093Z" stroke="#5A2ADD" stroke-width="5" stroke-miterlimit="10"/>
<path d="M138.046 182.927C162.834 182.927 182.927 162.834 182.927 138.046C182.927 113.259 162.834 93.1655 138.046 93.1655C113.259 93.1655 93.1655 113.259 93.1655 138.046C93.1655 162.834 113.259 182.927 138.046 182.927Z" stroke="#5A2ADD" stroke-width="5" stroke-miterlimit="10"/>
<path d="M138.047 165.82C153.385 165.82 165.82 153.385 165.82 138.047C165.82 122.708 153.385 110.273 138.047 110.273C122.708 110.273 110.273 122.708 110.273 138.047C110.273 153.385 122.708 165.82 138.047 165.82Z" fill="#5A2ADD" stroke="#5A2ADD" stroke-width="5" stroke-miterlimit="10"/>
</svg>
