<svg width="224" height="224" viewBox="0 0 224 224" fill="none" xmlns="http://www.w3.org/2000/svg">
<path fill-rule="evenodd" clip-rule="evenodd" d="M115.6 213.3L115.8 223.9H114.4L114.2 214.4L108.6 214.5V213.3H115.6ZM94 211.9L95.5 212.1L96.7 221.3L100.4 212.8L101.9 213L103.1 223.9L101.7 223.7L100.9 214.6L97.3 223L95.8 222.8L94.7 213.7L91.3 222.2L89.9 222L94 211.9ZM123.6 212.8L124.5 223.4L123.1 223.5L122.3 214.1L116.7 214.6L116.6 213.4L123.6 212.8ZM134.2 211.1L131.9 222.3L130.4 222.6L124.5 212.8L126 212.5L127.7 215.5L132.1 214.7L132.7 211.3L134.2 211.1ZM131.9 215.9L128.3 216.5L130.9 221.1L131.9 215.9ZM85.9 209.7C89.2 210.6 90.1 213.6 89.4 216.4C88.7 219.2 86.3 221.3 83 220.5C79.7 219.6 78.8 216.6 79.5 213.8C80.3 211 82.6 208.9 85.9 209.7ZM80.9 214.2C80.3 216.3 80.8 218.7 83.3 219.4C85.8 220.1 87.4 218.2 88 216.1C88.6 214 88.1 211.6 85.6 210.9C83.1 210.2 81.4 212.1 80.9 214.2ZM71.4 205.1L72.9 205.7C73.1 206.2 72.5 207.2 72.3 208.3C72.1 209.3 72 210.2 73.3 210.7L76.5 211.9L78.1 207.7L79.4 208.2L75.6 218.1L70.9 216.3C69 215.6 68.3 214.1 68.9 212.5C69.4 211.3 70.2 210.5 71.6 210.6C70.5 209.9 70.6 209 70.9 208C71.3 207 71.7 205.9 71.4 205.1ZM70.4 212.8C70 213.8 70.3 214.7 71.5 215.2L74.8 216.5L76.1 213L73.3 211.9C72.1 211.5 70.9 211.4 70.4 212.8ZM62.3 200.5L63.9 201.3L64.9 207.8L67.2 207.1L68.9 203.8L70.2 204.4L65.4 213.9L64.1 213.3L66.5 208.5L59.3 210.8L57.7 210L63.6 208.2L62.3 200.5ZM155.1 207.8L155.5 208.9L145.2 212.9L144.8 211.8L155.1 207.8ZM169.8 195.3L175.5 204.3L174.3 205.1L171.4 200.6L169.7 208L168.2 209L169.7 203L162.3 200.2L163.8 199.2L169.9 201.7L170.5 199.3L168.5 196.2L169.8 195.3ZM177.7 189.2L184.3 197.6L180.4 200.7C178.8 201.9 177.2 201.9 176.1 200.5C175.3 199.5 175.1 198.3 175.9 197.2C174.8 197.8 174 197.2 173.3 196.5C172.6 195.7 171.9 194.8 171 194.6L172.2 193.6C172.8 193.7 173.3 194.7 174.1 195.4C174.9 196.1 175.6 196.7 176.7 195.8L179.4 193.7L176.6 190.1L177.7 189.2ZM180.1 194.6L177.8 196.4C176.8 197.2 176.1 198.2 177 199.4C177.7 200.2 178.6 200.5 179.6 199.7L182.4 197.5L180.1 194.6ZM43.2 191.4L51.9 198.2L51.2 199.1L42.5 192.3L43.2 191.4ZM189.9 185C191.9 187.1 192.6 190.2 190.1 192.6C187.7 195 184.6 194.2 182.6 192.2C180.6 190.1 179.9 187 182.4 184.6C184.8 182.2 187.9 182.9 189.9 185ZM183.2 185.4C181.3 187.2 182.1 189.6 183.6 191.1C185.1 192.6 187.4 193.5 189.3 191.7C191.2 189.9 190.4 187.5 188.9 186C187.4 184.5 185 183.6 183.2 185.4ZM193.3 172.6L203.3 177.2L202.4 178.3L194.2 174.3L199.6 181.7L198.6 182.9L190.2 179.2L195.7 186.5L194.8 187.6L188.3 178.7L189.2 177.6L197.7 181.3L192.3 173.8L193.3 172.6ZM32 174.5L33 175.7L31.3 178.7L34.2 182.1L37.4 180.9L38.4 182L27.6 185.8L26.6 184.6L32 174.5ZM30.8 179.7L28.2 184.3L33.1 182.4L30.8 179.7ZM27.4 168.1L31.5 173.8L23 180L22.2 178.9L29.9 173.4L26.6 168.8L27.4 168.1ZM23.2 161.1L26.9 167.1L17.8 172.6L17.1 171.4L25.2 166.5L22.3 161.7L23.2 161.1ZM200.7 161L209.9 166.4L209.2 167.6L201.1 162.8L198.2 167.6L197.2 167L200.7 161ZM17.1 147.8L17.7 149.2L10.4 154.9L19.6 153.7L20.2 155.1L11.5 161.8L10.9 160.5L18.2 155.1L9.1 156.4L8.5 155L15.7 149.4L6.7 150.9L6.1 149.6L17.1 147.8ZM204.3 153.8L213.9 158.5L213.3 159.8L204.8 155.7L202.3 160.8L201.2 160.3L204.3 153.8ZM208.3 143.8L216.7 151.5L216.1 153L204.7 153.1L205.3 151.6L208.7 151.7L210.3 147.5L207.7 145.2L208.3 143.8ZM211.3 148.3L210 151.7L215.3 151.8L211.3 148.3ZM14.8 139.8C15.7 143.1 13.6 145.4 10.8 146.2C8 147 5 146.1 4.1 142.8C3.2 139.5 5.3 137.2 8.1 136.4C10.8 135.6 13.9 136.5 14.8 139.8ZM8.4 137.8C6.3 138.4 4.5 140 5.2 142.5C5.9 145 8.4 145.4 10.4 144.8C12.4 144.2 14.3 142.6 13.6 140.1C12.9 137.6 10.5 137.2 8.4 137.8ZM11.4 125L11.7 126.6C11.3 127.1 10.2 127 9.2 127.4C8.2 127.7 7.4 128.1 7.6 129.5L8.2 132.9L12.7 132.1L12.9 133.5L2.4 135.3L1.5 130.4C1.2 128.4 2 127 3.7 126.7C5 126.5 6.1 126.8 6.7 128.1C6.7 126.8 7.6 126.4 8.6 126.2C9.6 125.9 10.8 125.7 11.4 125ZM216.3 124.2L217.5 124.4L215.7 135.3L214.5 135.1L216.3 124.2ZM4.2 128.1C3.2 128.3 2.5 129 2.7 130.3L3.3 133.8L7 133.2L6.5 130.3C6.3 128.9 5.7 127.8 4.2 128.1ZM10.6 114.9L10.7 116.7L5.6 120.9L7.4 122.5L11.1 122.2L11.2 123.6L0.6 124.4L0.5 123L5.8 122.6L0.1 117.6L0 115.8L4.6 120L10.6 114.9ZM223.7 104.8V106.2L218.4 106.4L223.9 111.6L224 113.4L219.6 109L213.4 113.9L213.3 112.1L218.6 108.1L216.9 106.4L213.2 106.5V105.1L223.7 104.8ZM7.4 93.6L8.6 93.7L7.3 104.7L6.1 104.6L7.4 93.6ZM222.5 93.9L223.1 98.9C223.4 100.9 222.4 102.2 220.7 102.5C219.4 102.7 218.3 102.2 217.8 101C217.7 102.3 216.8 102.6 215.8 102.9C214.8 103.1 213.6 103.2 213 103.9L212.8 102.3C213.2 101.8 214.3 101.9 215.4 101.6C216.4 101.3 217.3 101 217.1 99.6L216.7 96.2L212.2 96.8L212 95.4L222.5 93.9ZM221.5 95.5L217.8 96L218.2 98.9C218.4 100.2 218.9 101.3 220.4 101.1C221.5 101 222.1 100.3 222 99L221.5 95.5ZM221.2 86.3C222 89.6 219.8 91.9 216.9 92.5C214.1 93.2 211.1 92.1 210.3 88.8C209.5 85.5 211.7 83.2 214.6 82.6C217.4 82 220.4 83 221.2 86.3ZM214.9 84C212.8 84.5 210.9 86.1 211.5 88.6C212.1 91.1 214.5 91.7 216.6 91.2C218.7 90.7 220.6 89.1 220 86.6C219.4 84.1 217 83.5 214.9 84ZM17.4 75.5L16.9 77H13.5L12 81.3L14.7 83.4L14.2 84.8L5.4 77.5L5.9 76L17.4 75.5ZM214.7 67.1L215.2 68.5L207.6 73.5L216.7 72.7L217.2 74.1L209.7 79.4L218.8 78.4L219.3 79.7L208.3 80.7L207.8 79.3L215.4 73.9L206.2 74.7L205.7 73.3L214.7 67.1ZM12.2 77.1L6.9 77.2L11 80.5L12.2 77.1ZM19.4 67.7L20.5 68.2L17.7 74.7L8 70.5L8.6 69.2L17.3 72.9L19.4 67.7ZM23.3 60.5L24.4 61.1L21 67.3L11.6 62.3L12.3 61L20.7 65.4L23.3 60.5ZM208.9 55.9L209.6 57.1L201.3 61.6L204 66.6L203 67.2L199.6 61L208.9 55.9ZM204.1 48.3L204.9 49.5L197 54.7L200.1 59.4L199.1 60.1L195.2 54.2L204.1 48.3ZM25.6 40.4L32.5 49L31.6 50.2L23 46.9L28.8 54.2L27.9 55.4L17.7 51.3L18.6 50.1L27 53.7L21.3 46.5L22.2 45.3L30.7 48.6L24.8 41.6L25.6 40.4ZM199.6 42.4L200.6 43.6L194.8 53.5L193.8 52.3L195.6 49.4L192.8 45.9L189.5 46.9L188.6 45.8L199.6 42.4ZM199.1 43.7L194.1 45.3L196.3 48.1L199.1 43.7ZM37.7 35.3C39.8 37.3 40.6 40.4 38.3 42.8C36 45.3 32.9 44.7 30.7 42.7C28.6 40.7 27.8 37.6 30.1 35.2C32.5 32.7 35.6 33.3 37.7 35.3ZM31 36C29.2 37.9 30.1 40.2 31.7 41.7C33.3 43.2 35.6 43.9 37.4 42C39.2 40.1 38.3 37.8 36.7 36.3C35.2 34.9 32.8 34.1 31 36ZM43.8 26.7C44.6 27.7 44.9 28.8 44.2 30C45.3 29.4 46.1 29.9 46.8 30.6C47.5 31.3 48.3 32.3 49.2 32.4L48 33.4C47.4 33.3 46.8 32.3 46 31.7C45.2 31 44.4 30.5 43.4 31.4L40.8 33.7L43.8 37.1L42.7 38L35.7 30L39.5 26.7C41 25.4 42.6 25.4 43.8 26.7ZM176.8 27.9L185.2 35.1L184.4 36L176 28.8L176.8 27.9ZM40.2 27.6L37.5 29.9L39.9 32.7L42.1 30.8C43.1 29.9 43.7 28.9 42.7 27.8C42.1 27 41.2 26.8 40.2 27.6ZM51.2 17.8L50 23.9L57.5 26.4L56 27.4L49.7 25.2L49.2 27.6L51.4 30.6L50.2 31.4L44 22.7L45.2 21.9L48.3 26.2L49.6 18.7L51.2 17.8ZM163.2 12.4L164.4 13.1L161.8 17.7L169.1 15.7L170.7 16.6L164.7 18.2L165.7 26L164.1 25.1L163.4 18.5L161 19.1L159.2 22.4L158 21.7L163.2 12.4ZM153.2 7.8L157.8 9.8C159.6 10.6 160.3 12.1 159.6 13.7C159.1 14.9 158.2 15.6 156.8 15.4C157.8 16.1 157.7 17.1 157.4 18C157.1 19 156.5 20 156.8 20.9L155.4 20.3C155.2 19.7 155.9 18.8 156.1 17.7C156.4 16.7 156.5 15.8 155.2 15.2L152 14L150.2 18.2L148.9 17.6L153.2 7.8ZM74 12.8L74.5 13.9L64.4 18.4L64 17.3L74 12.8ZM146 5C149.2 6 150.1 9.1 149.2 11.9C148.3 14.7 145.9 16.7 142.7 15.7C139.5 14.7 138.7 11.6 139.5 8.8C140.4 6 142.8 4 146 5ZM140.8 9.2C140.1 11.2 140.5 13.7 143 14.5C145.5 15.3 147.2 13.5 147.8 11.4C148.5 9.4 148.1 6.9 145.6 6.1C143.2 5.4 141.5 7.2 140.8 9.2ZM154 9.5L152.5 12.9L155.2 14.1C156.4 14.6 157.6 14.8 158.2 13.4C158.6 12.4 158.4 11.5 157.2 11L154 9.5ZM126.2 0.7L127.6 1L128 10.1L132 1.8L133.5 2.1L134.2 11.2L138 3L139.4 3.3L134.6 13.2L133.1 12.9L132.4 3.7L128.3 12L126.8 11.7L126.2 0.7ZM98.8 0.8L104.2 10.9L102.6 11.1L101 8.1L96.5 8.7L95.7 12L94.2 12.2L97.2 1L98.8 0.8ZM113.6 0L115 0.1L114.6 9.6L120.2 9.8V11L113.2 10.7L113.6 0ZM106.1 0.2L106.5 9.7L112.1 9.5V10.7L105.1 11L104.7 0.4L106.1 0.2ZM98.1 2.2L96.9 7.4L100.5 7L98.1 2.2Z" fill="#FFF0E7"/>
</svg>
