<svg xmlns="http://www.w3.org/2000/svg" fill="none" viewBox="0 0 552 240"><g stroke="#5a2add" stroke-opacity=".4" clip-path="url(#a)"><path d="M0 1.7041c39.4053 0 71.3372 52.4169 71.3372 117.1029S39.4053 235.91 0 235.91"/><path d="M276.64 154.126c-28.127 9.202-63.851 14.849-101.015 14.849-95.1158 0-172.2959-35.513-172.2959-79.3414 0-43.8285 77.1801-79.3411 172.2959-79.3411 41.716 0 71.19 3.7167 101.015 15.0998"/><path d="M276.64 212.588c-29.826 11.451-58.961 14.663-100.812 14.663-95.1167 0-172.29675-35.581-172.29675-79.341 0-43.761 77.18005-79.4095 172.29675-79.4095 37.163 0 72.56 5.2485 100.687 14.4504"/><path d="M551.674 235.91c-39.405 0-71.337-52.417-71.337-117.103 0-64.686 31.932-117.1029 71.337-117.1029"/><path d="M276.312 83.2946c28.128-9.202 62.573-14.655 99.737-14.655 95.116 0 172.296 35.5124 172.296 79.3414 0 43.828-77.112 79.341-172.296 79.341-41.716 0-69.583-3.351-99.409-14.734"/><path d="M276.641 25.3924c29.825-11.4512 57.489-15.3045 99.34-15.3045 95.116 0 172.296 35.5126 172.296 79.3411 0 43.828-77.112 79.341-172.296 79.341-37.163 0-71.213-5.442-99.34-14.644"/><path d="M279.234 236.796c86.902 0 157.35-52.825 157.35-117.989 0-65.1636-70.448-117.989129-157.35-117.989129-86.901 0-157.349 52.825529-157.349 117.989129 0 65.164 70.448 117.989 157.349 117.989Z"/><path d="M276.652.817871V236.796"/></g><defs><clipPath id="a"><path fill="#fff" d="M0 0h551.674v240H0z"/></clipPath></defs></svg>
