<svg width="65" height="38" viewBox="0 0 65 38" fill="none" xmlns="http://www.w3.org/2000/svg">
<path d="M65 2.3002C64.6785 2.20811 64.4663 2.1473 64.3343 2.10961C64.0847 2.22304 63.8454 2.28918 63.658 2.42607C63.391 2.62128 63.1624 2.86841 62.9174 3.09348C62.9405 3.12371 62.9636 3.15429 62.9867 3.18451H63.3427C63.3053 3.77512 62.7257 4.67863 62.3083 4.83401C62.4555 4.53355 62.6087 4.22029 62.8025 3.8249C62.0882 3.99948 61.8286 4.51329 61.5659 4.9766C61.4933 5.1046 61.7024 5.39191 61.803 5.66214C61.8229 5.62445 61.808 5.6657 61.7828 5.69877C61.1377 6.54289 60.5966 7.44747 60.1823 8.42743C60.156 8.48966 60.092 8.53481 60.0515 8.59242C59.5576 9.2993 59.0125 9.97844 58.5989 10.7301C58.451 10.9996 58.3326 11.2852 58.0948 11.4601C57.7129 11.7414 57.4273 12.0472 57.422 12.5521C57.4213 12.6243 57.3239 12.6954 57.235 12.8163C57.1354 12.5617 57.06 12.3686 56.9633 12.1215C56.8232 12.2893 56.7404 12.3889 56.5871 12.572C56.5231 12.2541 56.4776 12.0283 56.43 11.7922C56.2351 11.8648 56.1178 11.7759 56.1011 11.507C56.0701 11.0082 55.8721 10.6419 55.3049 10.6089C55.2861 10.6078 55.2694 10.5694 55.2626 10.5616C55.301 10.3123 55.3369 10.0766 55.3771 9.81274C55.7458 10.0456 55.6267 10.9218 56.3571 10.525C56.4516 10.7596 56.5402 10.9801 56.5907 11.1052C56.8147 11.1966 56.9651 11.2581 57.1792 11.3456C57.7893 10.3927 58.4421 9.43512 59.0256 8.43703C59.3521 7.87914 59.5402 7.67895 59.9779 7.79949C59.9903 7.73264 60.0351 7.63059 60.0099 7.60855C59.7318 7.36569 59.9071 7.17688 60.0536 6.95856C60.5251 6.2563 60.9752 5.53982 61.4453 4.8365C61.9076 4.14491 62.395 3.47004 62.8488 2.77311C63.0337 2.48865 63.3971 2.25113 63.2008 1.78213C63.1442 1.83582 63.1044 1.86854 63.071 1.90658C62.9665 2.02499 62.869 2.15015 62.7556 2.25895C62.7421 2.27175 62.5917 2.18677 62.5959 2.16579C62.6272 2.0129 62.6727 1.86142 62.7321 1.71706C62.7691 1.6271 62.8427 1.55279 62.89 1.46567C62.9064 1.43545 62.8925 1.38887 62.8925 1.33838C62.7915 1.34869 62.7062 1.35758 62.6102 1.36753C62.8281 0.451933 62.8281 0.451933 62.4366 0.295837C62.426 0.889288 62.2066 1.13712 61.6035 1.13748C61.862 0.747414 62.0942 0.397175 62.3264 0.0472912C62.3058 0.0312904 62.2855 0.0156452 62.2653 0C62.1074 0.173164 61.9499 0.346328 61.7355 0.581361C61.7159 0.353795 61.7035 0.208366 61.691 0.0632919C61.6441 0.0604473 61.5968 0.0576028 61.5499 0.0551138C61.5424 0.195209 61.5353 0.335661 61.5271 0.475756C61.5161 0.663854 61.5733 0.90351 61.4794 1.03009C61.1502 1.47207 60.7708 1.87742 60.4035 2.29024C60.3704 2.32758 60.2858 2.31869 60.1389 2.34963C60.2783 2.16544 60.364 2.05166 60.4348 1.95778C60.2847 1.7928 60.1599 1.65519 60.002 1.48167C59.7763 1.83191 59.5576 2.17042 59.2777 2.60386H60.1702C60.1855 2.65364 60.2008 2.70342 60.2164 2.75356C60.0479 2.83356 59.8755 2.90645 59.7126 2.99641C59.5498 3.08673 59.3261 3.15855 59.2543 3.30149C59.1256 3.55679 59.0904 3.85939 59.0164 4.14242C58.9759 4.13602 58.935 4.12998 58.8944 4.12358C58.9179 3.88783 58.941 3.65209 58.9723 3.3367C58.8315 3.39501 58.6462 3.41741 58.6231 3.49066C58.5364 3.76587 58.3927 4.09229 58.4699 4.33657C58.701 5.06762 58.1268 5.41644 57.8835 5.97753C57.4899 5.516 58.0499 5.26248 57.992 4.89944C57.7107 4.81801 57.4608 4.75685 57.3733 5.1551C57.3555 5.23474 57.2485 5.29235 57.1898 5.36559C57.0273 5.56898 56.8684 5.77557 56.7084 5.98074C56.7443 6.0074 56.7802 6.03407 56.8165 6.06074C56.9601 5.88402 57.1038 5.70694 57.2474 5.52987C57.2801 5.54765 57.3128 5.56507 57.3456 5.58285C57.256 5.86162 57.166 6.14039 57.0842 6.39391C56.8115 6.47889 56.5057 6.57347 56.2148 6.66379C56.2767 6.42307 56.3414 6.17203 56.4061 5.921C56.3596 5.90251 56.3126 5.88402 56.266 5.86588C55.9834 6.05825 55.7003 6.25061 55.4148 6.44511C55.7704 6.8846 55.7661 7.23271 55.4568 7.62739C55.397 7.70349 55.365 7.83078 55.3771 7.92714C55.4059 8.1572 55.4688 8.38263 55.519 8.61517C55.5965 8.6646 55.834 8.74034 55.8443 8.83954C55.8671 9.05431 55.8241 9.31743 55.7042 9.48775C55.6484 9.5674 55.2747 9.54891 55.1812 9.44828C55.0304 9.2865 54.9501 9.02479 54.9223 8.79545C54.9053 8.65109 55.0386 8.48859 55.1044 8.33427C54.9138 8.44734 54.7826 8.59171 54.651 8.73536C54.5013 8.89892 54.347 9.04968 54.6187 9.25663C54.6649 9.29218 54.5966 9.4785 54.5813 9.59478C54.4857 9.53931 54.3808 9.4945 54.2972 9.4241C54.2556 9.3889 54.2531 9.30747 54.2208 9.21076C53.9633 9.40134 53.8279 9.54784 53.985 9.86821C54.0668 10.0346 53.9872 10.2803 53.9804 10.4905C53.9441 10.4866 53.9079 10.4826 53.872 10.4787C53.8023 10.3294 53.7329 10.18 53.6352 9.96955C53.3767 10.4229 53.1779 10.7721 52.9379 11.1938C53.1459 11.2286 53.3457 11.2617 53.5886 11.3026C53.3759 11.6059 53.1669 11.9042 52.9539 12.2082C53.1982 12.5432 53.1374 12.7732 52.6861 13.1533C52.5478 13.0726 52.4113 12.9926 52.2705 12.9105C52.2929 12.8316 52.2961 12.7704 52.3245 12.726C52.5194 12.4244 52.758 12.1275 52.289 11.8477C52.2527 11.826 52.2747 11.7158 52.2594 11.6486C52.1492 11.1582 52.5887 11.0512 52.8629 10.8137C52.8156 10.6921 52.7722 10.5794 52.7107 10.4193C52.3419 10.8862 51.9537 11.2475 51.8182 11.8345C51.6116 12.7277 50.7141 13.1637 50.2817 13.9232C50.0972 14.2474 49.881 14.5536 49.6616 14.8957C49.8778 14.9063 50.0254 14.9138 50.1744 14.9216C50.0357 15.253 49.9312 15.5599 49.7818 15.8433C49.6396 16.1128 49.4508 16.3578 49.2826 16.6138C49.2392 16.5864 49.1958 16.5594 49.1528 16.532C49.2285 16.3919 49.326 16.2593 49.374 16.1103C49.4223 15.9613 49.422 15.7967 49.4536 15.556C48.9818 15.8667 48.8324 16.3012 48.9533 16.8118C48.8239 16.7681 48.7108 16.7301 48.6031 16.6938C48.5732 16.7201 48.5487 16.7357 48.532 16.7578C48.2489 17.1265 48.1999 17.6137 47.8013 17.9497C47.488 18.2135 47.338 18.6708 47.115 19.0416C46.5625 19.959 46.011 20.8771 45.4556 21.7927C45.3788 21.9193 45.281 22.0334 45.1668 22.1888C45.0605 22.0544 44.983 21.9751 44.9272 21.8827C43.3641 19.298 41.7999 16.7141 40.2429 14.1262C38.6264 11.4395 37.0121 8.75136 35.411 6.05576C35.1884 5.68099 34.9203 5.54836 34.4865 5.55191C31.8741 5.57325 29.2617 5.56685 26.649 5.57218C26.5583 5.57254 26.4676 5.60063 26.3357 5.62232C26.4008 5.76135 26.4395 5.86446 26.4946 5.95833C27.4828 7.64446 28.4713 9.33059 29.463 11.0149C31.4634 14.4131 33.4685 17.8085 35.4661 21.2085C37.0904 23.9731 38.7142 26.738 40.3214 29.5125C40.8918 30.4964 41.5755 31.3757 42.5107 32.0272C43.6628 32.8297 44.9058 33.2926 46.3104 32.7429C47.2604 32.3713 48.116 31.8241 48.751 31.017C49.2819 30.3421 49.7733 29.6295 50.2156 28.8938C51.2585 27.1576 52.2634 25.3979 53.2789 23.6452C53.3468 23.5275 53.4538 23.3458 53.4101 23.2648C53.1864 22.8463 53.531 22.7385 53.7504 22.5501C53.9381 22.389 54.166 22.2436 54.283 22.038C54.5383 21.5879 54.7413 21.1068 54.9504 20.6318C55.0013 20.5158 54.9927 20.374 55.0247 20.1542C54.7979 20.2933 54.6592 20.3782 54.518 20.4646C54.4651 20.3349 54.4171 20.2172 54.3538 20.0618C54.2101 20.1827 54.1077 20.2691 53.9569 20.396C53.857 20.2349 53.7763 20.1048 53.6519 19.9035C53.888 19.9384 54.0017 19.9551 54.0999 19.9693C54.1682 19.7844 54.224 19.633 54.2702 19.5078C54.5212 19.5704 54.7214 19.6202 54.9465 19.6763C54.9604 19.7418 54.9838 19.8541 55.0304 20.0753C55.3511 19.5988 55.6114 19.202 55.8838 18.8141C55.9457 18.7262 56.0587 18.6754 56.1338 18.5947C56.3688 18.3415 56.6209 18.0997 56.8222 17.8213C57.1724 17.336 57.2321 16.6774 57.7587 16.2838C57.9038 16.175 57.9536 15.9386 58.0467 15.7608C58.0041 15.7302 57.9611 15.6996 57.918 15.669C57.8419 15.8066 57.7655 15.9439 57.6894 16.0811C57.6393 16.0395 57.5891 15.9979 57.5393 15.9563C58.1033 15.3558 58.9517 14.9255 58.8521 13.9129C58.9865 13.84 59.1305 13.7617 59.2745 13.6835C59.2393 13.6625 59.2038 13.6412 59.1686 13.6199C59.2212 13.4279 59.272 13.2358 59.3265 13.0442C59.3602 12.9254 59.399 12.8081 59.4353 12.6897C59.3112 12.7544 59.1337 12.7868 59.0719 12.8892C58.813 13.3173 58.589 13.7667 58.3372 14.2364C58.4375 14.2524 58.5001 14.2624 58.5239 14.2659C58.2398 14.6617 57.9251 15.0585 57.6585 15.4852C57.464 15.7963 57.326 15.8561 56.9985 15.5396C57.0462 15.7579 57.086 15.8774 57.0938 15.9986C57.0995 16.09 57.0661 16.2639 57.0462 16.2646C56.6198 16.2771 56.6668 16.6084 56.5537 16.8286C56.4317 16.9964 56.3098 17.1639 56.1409 17.396C55.9268 17.3712 55.7849 17.5937 55.8536 17.8679C55.9837 18.387 55.5627 18.6213 55.4468 18.9641C55.3113 18.7319 55.1723 18.5406 55.0877 18.3273C55.05 18.232 55.0966 18.0812 55.1478 17.976C55.3814 17.4949 55.6306 17.0213 55.8738 16.5448C55.9058 16.4815 55.9382 16.4186 55.9681 16.3542C56.1366 15.9894 56.3236 15.632 56.4652 15.2573C56.5587 15.0098 56.6202 14.8057 56.9388 14.7381C57.2762 14.6663 57.4825 14.1514 57.4529 13.777C57.4291 13.4744 57.4256 13.1402 57.736 12.9169C57.7186 13.1878 57.704 13.4097 57.6898 13.6316C57.7363 13.6373 57.7829 13.643 57.8295 13.6483C57.9742 13.1946 58.1164 12.7398 58.2654 12.2872C58.307 12.1606 58.3337 11.9832 58.4261 11.9277C58.7636 11.7257 59.0857 11.5422 58.9983 11.0619C58.9904 11.0196 59.074 10.9396 59.132 10.9086C59.6987 10.6103 59.8723 10.0019 60.2033 9.52615C60.8376 8.61304 61.4115 7.65833 62.0181 6.72566C62.1309 6.55214 62.3001 6.41453 62.4089 6.23888C62.8104 5.59174 63.145 4.89446 63.6108 4.29923C63.8703 3.96784 64.1406 3.72036 63.9656 3.31927C64.2437 3.20407 64.5338 3.16318 64.6928 2.99712C64.8624 2.81969 64.9082 2.52421 65 2.3002ZM59.8552 5.24008H59.8559C59.8555 5.24043 59.8552 5.24114 59.8545 5.2415C59.8545 5.24185 59.8541 5.24257 59.8534 5.24292C59.8531 5.24328 59.8527 5.24399 59.852 5.2447C59.852 5.24505 59.8516 5.24505 59.8513 5.24541C59.8513 5.24541 59.8513 5.24577 59.8509 5.24577L59.8491 5.2479C59.8474 5.25039 59.8456 5.25217 59.8456 5.25217C59.8456 5.24932 59.8452 5.24648 59.8449 5.24399C59.8484 5.24257 59.8516 5.2415 59.8552 5.24008Z" fill="#FFF0E7"/>
<path d="M38.6631 32.0997C38.4817 32.1182 38.3608 32.1413 38.2399 32.1417C35.5987 32.1456 32.9575 32.1435 30.3163 32.1545C30.0102 32.1556 29.8285 32.0524 29.6688 31.7861C27.6211 28.3669 25.5616 24.9548 23.5061 21.5406C22.3583 19.6337 21.2126 17.7257 20.0634 15.8198C20.0065 15.726 19.924 15.6477 19.7932 15.4891C18.6279 17.3694 17.4905 19.2045 16.3388 21.0627C16.1347 20.8896 15.974 20.8903 15.8413 20.9714C16.1023 21.2078 15.9946 21.6064 15.5579 22.0381C15.3471 21.5758 15.7144 21.3301 15.8118 20.9909C15.6984 21.072 15.6056 21.2103 15.5234 21.3412C15.2493 21.7782 15.0317 22.2504 14.77 22.7457C14.93 22.7809 15.0584 22.809 15.2589 22.8531C15.149 23.0241 15.0584 23.1699 14.9634 23.3125C14.6342 23.8063 14.3646 24.3162 13.8615 24.712C13.4721 25.0185 13.2965 25.6009 13.0394 26.0681C12.836 26.4369 12.6529 26.8166 12.4609 27.1914C12.3891 27.1608 12.3172 27.1299 12.2454 27.0989C12.2941 26.9709 12.3116 26.8152 12.3965 26.7196C12.815 26.2459 12.8065 26.1766 12.5295 25.6365C12.4563 25.4935 12.5413 25.2219 12.6333 25.0523C12.7937 24.7568 12.6397 24.6032 12.4157 24.5463C12.3062 24.5186 12.073 24.654 12.0278 24.7682C11.9492 24.9659 11.9997 25.2112 11.9467 25.4242C11.8959 25.6279 11.7999 25.8267 11.6907 26.0077C11.5965 26.1645 11.456 26.2932 11.2822 26.4973C11.5069 26.5219 11.6225 26.5343 11.8418 26.5581C11.6726 26.9596 11.5243 27.3112 11.376 27.6625C11.3241 27.6508 11.2722 27.6387 11.2203 27.627C11.1943 27.4911 11.168 27.3553 11.1399 27.2085C10.6475 27.4609 11.1286 27.9193 10.9006 28.2642C10.8014 28.1881 10.7367 28.1088 10.6556 28.0842C10.5607 28.0558 10.4306 28.0405 10.3552 28.0857C10.2994 28.1191 10.2574 28.3033 10.2937 28.3431C10.7389 28.832 10.2457 29.0094 9.99535 29.3177C9.99535 29.0254 10.0441 28.7687 9.98361 28.5412C9.89614 28.2115 9.50075 28.0508 9.23158 28.1802C8.99512 28.2937 8.89947 28.7268 9.14482 28.9621C9.49968 29.3024 9.39336 29.599 9.15229 29.9802C9.30803 29.9599 9.41043 29.9467 9.59 29.9233C9.25931 30.378 9.16082 30.7951 9.58715 31.2485C9.23727 31.5116 8.90481 31.7619 8.57235 32.0123C8.53963 31.9835 8.50692 31.9543 8.47421 31.9255C8.56701 31.6318 8.65982 31.3384 8.74622 31.0657C8.4863 31.1379 8.20682 31.2158 7.91205 31.2976C7.89249 31.3608 7.85658 31.4906 7.81178 31.6169C7.76662 31.7434 7.71257 31.8672 7.66244 31.992C7.69693 32.0108 7.73142 32.03 7.76591 32.0489C7.9156 31.885 8.0653 31.7214 8.21464 31.5575C8.25553 31.5909 8.29642 31.6247 8.33731 31.6581C8.14815 31.8935 7.95792 32.1275 7.77088 32.3643C7.70368 32.45 7.66172 32.5648 7.57852 32.6263C7.45158 32.7206 7.29868 32.7799 7.15681 32.8539C7.1529 32.7159 7.13085 32.5755 7.14934 32.4411C7.18099 32.2124 7.23824 31.9877 7.23646 31.7538C6.7383 32.0009 6.41402 32.8265 6.4382 33.2912C6.45598 33.6262 6.43464 34.0109 6.10147 34.2844C6.08191 34.1578 6.062 34.0308 6.04209 33.9043C6.00618 33.8833 5.96991 33.8623 5.934 33.841C5.84297 33.9683 5.67194 34.098 5.67585 34.2221C5.68758 34.5734 5.49237 34.6431 5.21645 34.7089C5.04542 34.7495 4.89537 34.8771 4.73571 34.9653C4.7478 35.0108 4.75954 35.0563 4.77127 35.1015C5.0504 35.1157 5.32917 35.1296 5.69932 35.1484C5.41486 35.547 5.18303 35.872 4.95119 36.197C4.91741 36.1792 4.88399 36.1611 4.85057 36.1429C4.86585 36.0252 4.88114 35.9076 4.90177 35.7507C4.79012 35.7948 4.69625 35.8322 4.48753 35.915C4.61482 35.6864 4.69269 35.547 4.77056 35.4073C4.73251 35.3735 4.69482 35.3397 4.65713 35.3059C4.20591 35.829 3.75469 36.352 3.28071 36.9017V36.5046C2.78006 36.5202 2.49312 36.8249 2.42556 37.354C2.17275 36.8786 2.35302 36.4366 2.61437 35.9712H2.28511C2.326 35.8553 2.33418 35.7419 2.39462 35.675C2.87749 35.1424 3.08337 34.4181 3.64944 33.9323C3.88127 33.7332 3.98688 33.3851 4.14582 33.1028C4.21089 32.9876 4.26565 32.8663 4.37125 32.6551C4.44521 32.8742 4.48219 32.9844 4.56326 33.2251C4.86834 32.7184 5.12151 32.2978 5.37468 31.8771C5.32383 31.8394 5.27299 31.8018 5.22178 31.7637C5.06533 31.9621 4.90923 32.1602 4.75278 32.3586C4.71331 32.3316 4.6742 32.3049 4.63509 32.2779C4.98817 31.7335 5.33237 31.1823 5.70536 30.6518C5.75976 30.5743 5.95071 30.575 6.07942 30.5722C6.25614 30.5679 6.43358 30.5946 6.67003 30.6124C6.41082 30.5132 6.25579 30.4534 6.1004 30.394C6.16476 30.3137 6.22912 30.2333 6.29312 30.153C6.20672 30.2333 6.11996 30.314 5.95177 30.4698C5.9436 30.3066 5.90377 30.1999 5.94075 30.1391C6.13063 29.8244 6.34682 29.525 6.53918 29.2118C6.59145 29.1261 6.59749 29.0102 6.61136 28.9067C6.61278 28.8978 6.4894 28.8462 6.46878 28.8644C6.40122 28.9252 6.34859 29.0059 6.29988 29.0848C6.15303 29.3209 6.02076 29.5663 5.86501 29.796C5.25734 30.6934 4.6454 31.5881 4.0267 32.4781C4.01568 32.4941 4.00252 32.5083 3.98795 32.5218C3.91968 32.7337 3.85212 32.946 3.73407 33.1256C3.27964 33.8164 2.77829 34.4757 2.30146 35.152C2.23995 35.2391 2.21435 35.3511 2.17239 35.4517C2.13186 35.4474 2.09096 35.4428 2.05043 35.4386C2.07176 35.2693 2.03763 35.0616 2.12332 34.9368C2.70539 34.0906 3.31058 33.2603 3.9115 32.4272C4.14262 32.0062 4.37268 31.5849 4.60878 31.1671C4.83136 30.7724 5.38072 30.4851 4.93661 29.86C5.46642 30.1117 5.63069 29.7714 5.81808 29.4781C6.51678 28.3843 7.21441 27.2899 7.91418 26.1972C7.92698 26.1773 7.96218 26.172 8.02832 26.14C8.02832 26.3057 8.02832 26.4543 8.02868 26.6033C8.02583 26.6047 8.02299 26.6068 8.02014 26.6086C8.01907 26.615 8.01765 26.6214 8.01623 26.6278C8.0205 26.6253 8.02441 26.6228 8.02868 26.6207V26.6033C8.32913 26.4098 8.38034 26.8671 8.62888 26.796C8.59439 26.9304 8.57092 27.0232 8.53003 27.1832C9.37558 26.7306 9.18535 27.7244 9.62982 27.8983C9.84494 27.3397 9.56475 26.8952 9.43141 26.4262C9.37559 26.4319 9.32012 26.4376 9.26429 26.4433C9.27887 26.5976 9.2938 26.7516 9.30838 26.9055C9.27211 26.9265 9.23585 26.9478 9.19993 26.9688C9.09291 26.7352 8.9329 26.5105 8.89272 26.2658C8.84223 25.96 8.75831 25.8104 8.50052 25.9327C8.48061 25.6863 8.46141 25.4512 8.44185 25.2158C8.40558 25.2151 8.36896 25.2144 8.33233 25.2137C8.23633 25.3314 8.14068 25.4494 7.98316 25.6425C7.88929 25.3534 7.82635 25.1597 7.76342 24.9662C7.73106 24.9584 7.69835 24.9509 7.66564 24.9435C7.61088 25.0861 7.52234 25.2254 7.50812 25.3719C7.47896 25.6763 7.36091 25.8747 7.0953 26.06C6.80515 26.2623 6.56371 26.5147 6.40193 26.8934C6.14485 27.4951 5.71105 28.0206 5.35512 28.5803C5.0728 29.0244 4.79118 29.4688 4.51597 29.9169C4.05906 30.6604 3.60748 31.4074 3.15128 32.1563C3.54917 32.5776 3.54917 32.5776 3.17582 33.0893C2.69722 33.745 2.65206 33.7798 2.19124 33.7947C2.35124 33.485 2.49418 33.208 2.63855 32.9289C2.18981 33.074 1.66534 33.9149 1.66108 34.5198H1.96865C1.99389 34.5628 2.01914 34.6058 2.04438 34.6488C1.60063 34.9749 1.15687 35.3013 0.73232 35.6131C0.570179 35.5783 0.379237 35.5459 0.194339 35.493C0.12358 35.4727 0.0297085 35.4179 0.00944084 35.3578C-0.0723409 35.1171 0.397015 34.4703 0.652672 34.4906C0.925397 34.5126 1.0054 34.4508 0.964865 34.1635C0.942464 34.0038 1.01678 33.8004 1.11136 33.66C1.55192 33.0064 2.02412 32.3742 2.46752 31.7221C2.9166 31.0618 3.35325 30.3926 3.78065 29.7177C4.30014 28.8981 4.80292 28.0679 5.31743 27.2451C5.36686 27.1658 5.43975 27.0954 5.51513 27.0381C5.76794 26.8454 6.07302 26.7071 6.00831 26.2843C5.99373 26.1897 6.16441 26.0265 6.28566 25.959C6.5534 25.8096 6.72266 25.6905 6.73759 25.3029C6.75359 24.8887 7.00783 24.4837 7.15788 24.0748C7.20375 24.0805 7.24962 24.0858 7.29548 24.0915C7.28304 24.2992 7.27024 24.5072 7.25957 24.6835C7.44696 24.6007 7.51345 24.4339 7.52092 23.9756C7.5291 23.492 7.60697 23.0618 8.18442 22.9043C8.31953 22.8673 8.4479 22.6504 8.4991 22.4904C8.64453 22.037 8.76471 21.6018 9.0737 21.1961C9.42608 20.7342 9.62555 20.1532 9.87339 19.6159C9.91037 19.5356 9.86912 19.4004 9.82752 19.3069C9.75 19.1327 9.64582 18.9709 9.52137 18.7476C9.39621 18.9738 9.19531 19.2298 9.11033 19.5196C9.02677 19.8051 9.0609 20.1251 9.0385 20.5155C8.86889 20.3925 8.80489 20.3463 8.70782 20.2759V20.6489C8.66515 20.6329 8.62248 20.6169 8.58017 20.6005C8.49021 20.7619 8.41518 20.9347 8.30602 21.0816C8.18442 21.2455 8.03152 21.386 7.85053 21.5815C7.85729 21.5869 7.90067 21.6331 7.92911 21.6868C7.9572 21.7398 7.98921 21.8176 7.96894 21.861C7.94796 21.9069 7.84698 21.9652 7.81569 21.9495C7.45478 21.7682 7.437 22.0932 7.31113 22.2731C7.05085 22.6443 6.77955 23.0081 6.51322 23.375C6.48193 23.3519 6.45064 23.3292 6.41935 23.3061C6.45313 23.4074 6.5438 23.535 6.51109 23.6054C6.30984 24.0392 6.09045 24.4659 5.85186 24.8805C5.8099 24.9531 5.64776 24.9563 5.54109 24.9915C5.56384 24.8933 5.58127 24.7934 5.61042 24.6971C5.67229 24.4944 5.74021 24.2938 5.78288 24.1623C5.96031 23.7644 6.13703 23.4469 6.24477 23.1073C6.37704 22.6891 6.65332 22.4217 6.99574 22.181C7.15361 22.0697 7.26348 21.8902 7.39504 21.7415C7.36731 21.7174 7.33957 21.6932 7.3122 21.669C7.19948 21.7888 7.08712 21.9087 6.9744 22.0285C6.93991 22.0029 6.90578 21.9773 6.87129 21.9517C7.04232 21.7102 7.21121 21.4674 7.38509 21.2281C7.49105 21.0819 7.62901 20.9536 7.71079 20.7954C7.90991 20.4096 8.08343 20.0102 8.27118 19.6181C8.30744 19.542 8.34691 19.4364 8.41163 19.4097C8.97094 19.1796 9.16011 18.6029 9.54235 18.2086C9.71907 18.0262 9.80974 17.7538 9.91712 17.512C10.2343 16.7976 10.5351 16.0758 10.8583 15.364C10.8967 15.279 11.035 15.242 11.1229 15.1766C11.3231 15.0276 11.5204 14.8751 11.7192 14.7239C11.6889 14.6823 11.6587 14.6404 11.6285 14.5988C11.5208 14.682 11.413 14.7652 11.2868 14.8626C11.2658 14.8 11.2335 14.7531 11.2455 14.7321C12.0715 13.3002 12.8734 11.8534 13.7378 10.4453C14.5662 9.09629 15.1867 7.59187 16.3779 6.50168C16.9873 5.94414 17.6864 5.43709 18.4288 5.08366C19.7587 4.45038 21.0515 4.74551 22.2608 5.5267C23.3923 6.25811 24.1447 7.30848 24.8085 8.44844C26.036 10.5563 27.2837 12.6524 28.52 14.7552C29.9288 17.1518 31.3347 19.5505 32.7413 21.9485C34.335 24.6651 35.9276 27.382 37.522 30.0978C37.8019 30.5747 38.0916 31.0458 38.3708 31.5237C38.4686 31.6912 38.5471 31.8697 38.6631 32.0997Z" fill="#FFF0E7"/>
</svg>
